<?xml version="1.0" encoding="UTF-8"?>
<svg id="Camada_1" xmlns="http://www.w3.org/2000/svg" version="1.1" xmlns:xlink="http://www.w3.org/1999/xlink" viewBox="0 0 1280 971.11">
  <!-- Generator: Adobe Illustrator 29.3.1, SVG Export Plug-In . SVG Version: 2.1.0 Build 151)  -->
  <defs>
    <style>
      .st0 {
        fill: url(#Gradiente_sem_nome_129);
      }

      .st1 {
        fill: url(#Gradiente_sem_nome_124);
      }

      .st2 {
        fill: #fefcfd;
      }

      .st3 {
        fill: url(#Gradiente_sem_nome_1214);
      }

      .st4 {
        fill: url(#Gradiente_sem_nome_61);
      }

      .st5 {
        fill: url(#Gradiente_sem_nome_1210);
      }

      .st6 {
        fill: url(#Gradiente_sem_nome_1213);
      }

      .st7 {
        fill: url(#Gradiente_sem_nome_1222);
      }

      .st8 {
        fill: url(#Gradiente_sem_nome_1218);
      }

      .st9 {
        fill: url(#Gradiente_sem_nome_1215);
      }

      .st10 {
        fill: url(#Gradiente_sem_nome_1216);
      }

      .st11 {
        fill: url(#Gradiente_sem_nome_121);
      }

      .st12 {
        fill: url(#Gradiente_sem_nome_1220);
      }

      .st13 {
        fill: url(#Gradiente_sem_nome_12);
      }

      .st14 {
        fill: url(#Gradiente_sem_nome_126);
      }

      .st15 {
        fill: url(#Gradiente_sem_nome_127);
      }

      .st16 {
        fill: url(#Gradiente_sem_nome_1221);
      }

      .st17 {
        fill: url(#Gradiente_sem_nome_128);
      }

      .st18 {
        fill: url(#Gradiente_sem_nome_122);
      }

      .st19 {
        fill: url(#Gradiente_sem_nome_125);
      }

      .st20 {
        fill: url(#Gradiente_sem_nome_1219);
      }

      .st21 {
        fill: url(#Gradiente_sem_nome_6);
      }

      .st22 {
        fill: url(#Gradiente_sem_nome_123);
      }

      .st23 {
        fill: url(#Gradiente_sem_nome_1217);
      }

      .st24 {
        fill: url(#Gradiente_sem_nome_1212);
      }

      .st25 {
        fill: url(#Gradiente_sem_nome_1211);
      }

      .st26 {
        fill: url(#Gradiente_sem_nome_18);
      }

      .st27 {
        fill: url(#Gradiente_sem_nome_1223);
      }

      .st28 {
        fill: url(#Gradiente_sem_nome_1224);
      }
    </style>
    <linearGradient id="Gradiente_sem_nome_12" data-name="Gradiente sem nome 12" x1="640" y1="532.97" x2="640" y2="24.69" gradientUnits="userSpaceOnUse">
      <stop offset="0" stop-color="#d1ab7d"/>
      <stop offset="1" stop-color="#997b66"/>
    </linearGradient>
    <linearGradient id="Gradiente_sem_nome_121" data-name="Gradiente sem nome 12" x1="496.83" y1="532.97" x2="496.83" y2="24.69" xlink:href="#Gradiente_sem_nome_12"/>
    <linearGradient id="Gradiente_sem_nome_122" data-name="Gradiente sem nome 12" x1="455.1" y1="532.97" x2="455.1" y2="24.69" xlink:href="#Gradiente_sem_nome_12"/>
    <linearGradient id="Gradiente_sem_nome_123" data-name="Gradiente sem nome 12" x1="436.11" y1="532.97" x2="436.11" y2="24.69" xlink:href="#Gradiente_sem_nome_12"/>
    <linearGradient id="Gradiente_sem_nome_124" data-name="Gradiente sem nome 12" x1="382.09" y1="532.97" x2="382.09" y2="24.69" xlink:href="#Gradiente_sem_nome_12"/>
    <linearGradient id="Gradiente_sem_nome_125" data-name="Gradiente sem nome 12" x1="421.15" y1="532.97" x2="421.15" y2="24.69" xlink:href="#Gradiente_sem_nome_12"/>
    <linearGradient id="Gradiente_sem_nome_126" data-name="Gradiente sem nome 12" x1="364.88" y1="532.97" x2="364.88" y2="24.63" xlink:href="#Gradiente_sem_nome_12"/>
    <linearGradient id="Gradiente_sem_nome_127" data-name="Gradiente sem nome 12" x1="421.14" y1="532.97" x2="421.14" y2="24.69" xlink:href="#Gradiente_sem_nome_12"/>
    <linearGradient id="Gradiente_sem_nome_128" data-name="Gradiente sem nome 12" x1="364.87" y1="532.97" x2="364.87" y2="24.69" xlink:href="#Gradiente_sem_nome_12"/>
    <linearGradient id="Gradiente_sem_nome_129" data-name="Gradiente sem nome 12" x1="428.62" y1="532.97" x2="428.62" y2="24.69" xlink:href="#Gradiente_sem_nome_12"/>
    <linearGradient id="Gradiente_sem_nome_1210" data-name="Gradiente sem nome 12" x1="394.26" y1="532.97" x2="394.26" y2="24.69" xlink:href="#Gradiente_sem_nome_12"/>
    <linearGradient id="Gradiente_sem_nome_1211" data-name="Gradiente sem nome 12" x1="486.37" y1="532.97" x2="486.37" y2="24.69" xlink:href="#Gradiente_sem_nome_12"/>
    <linearGradient id="Gradiente_sem_nome_1212" data-name="Gradiente sem nome 12" x1="467.14" y1="532.97" x2="467.14" y2="24.69" xlink:href="#Gradiente_sem_nome_12"/>
    <linearGradient id="Gradiente_sem_nome_1213" data-name="Gradiente sem nome 12" x1="783.17" y1="532.97" x2="783.17" y2="24.69" xlink:href="#Gradiente_sem_nome_12"/>
    <linearGradient id="Gradiente_sem_nome_1214" data-name="Gradiente sem nome 12" x1="824.9" y1="532.97" x2="824.9" y2="24.69" xlink:href="#Gradiente_sem_nome_12"/>
    <linearGradient id="Gradiente_sem_nome_1215" data-name="Gradiente sem nome 12" x1="843.89" y1="532.97" x2="843.89" y2="24.69" xlink:href="#Gradiente_sem_nome_12"/>
    <linearGradient id="Gradiente_sem_nome_1216" data-name="Gradiente sem nome 12" x1="897.91" y1="532.97" x2="897.91" y2="24.69" xlink:href="#Gradiente_sem_nome_12"/>
    <linearGradient id="Gradiente_sem_nome_1217" data-name="Gradiente sem nome 12" x1="858.85" y1="532.97" x2="858.85" y2="24.69" xlink:href="#Gradiente_sem_nome_12"/>
    <linearGradient id="Gradiente_sem_nome_1218" data-name="Gradiente sem nome 12" x1="915.12" y1="532.97" x2="915.12" y2="24.63" xlink:href="#Gradiente_sem_nome_12"/>
    <linearGradient id="Gradiente_sem_nome_1219" data-name="Gradiente sem nome 12" x1="858.86" y1="532.97" x2="858.86" y2="24.69" xlink:href="#Gradiente_sem_nome_12"/>
    <linearGradient id="Gradiente_sem_nome_1220" data-name="Gradiente sem nome 12" x1="915.13" y1="532.97" x2="915.13" y2="24.69" xlink:href="#Gradiente_sem_nome_12"/>
    <linearGradient id="Gradiente_sem_nome_1221" data-name="Gradiente sem nome 12" x1="851.38" y1="532.97" x2="851.38" y2="24.69" xlink:href="#Gradiente_sem_nome_12"/>
    <linearGradient id="Gradiente_sem_nome_1222" data-name="Gradiente sem nome 12" x1="885.74" y1="532.97" x2="885.74" y2="24.69" xlink:href="#Gradiente_sem_nome_12"/>
    <linearGradient id="Gradiente_sem_nome_1223" data-name="Gradiente sem nome 12" x1="793.63" y1="532.97" x2="793.63" y2="24.69" xlink:href="#Gradiente_sem_nome_12"/>
    <linearGradient id="Gradiente_sem_nome_1224" data-name="Gradiente sem nome 12" x1="812.86" y1="532.97" x2="812.86" y2="24.69" xlink:href="#Gradiente_sem_nome_12"/>
    <linearGradient id="Gradiente_sem_nome_6" data-name="Gradiente sem nome 6" x1="2595.76" y1="337.37" x2="2595.76" y2="189.33" gradientTransform="translate(3322.48) rotate(-180) scale(1 -1)" gradientUnits="userSpaceOnUse">
      <stop offset="0" stop-color="#d1ab7d"/>
      <stop offset=".85" stop-color="#997b66"/>
    </linearGradient>
    <linearGradient id="Gradiente_sem_nome_18" data-name="Gradiente sem nome 18" x1="640" y1="284.1" x2="640" y2="142.18" gradientUnits="userSpaceOnUse">
      <stop offset=".31" stop-color="#d1ab7d"/>
      <stop offset=".85" stop-color="#997b66"/>
    </linearGradient>
    <linearGradient id="Gradiente_sem_nome_61" data-name="Gradiente sem nome 6" x1="553.28" x2="553.28" gradientTransform="matrix(1,0,0,1,0,0)" xlink:href="#Gradiente_sem_nome_6"/>
  </defs>
  <g>
    <path class="st13" d="M640,429.56c-11.28,0-22.55-2.94-32.62-8.83l-95.39-55.88c-19.69-11.53-31.92-32.87-31.92-55.68v-113.2c0-22.81,12.23-44.14,31.92-55.68l95.39-55.88c20.13-11.77,45.1-11.79,65.23,0l95.4,55.88c19.68,11.53,31.9,32.86,31.9,55.68v113.2c0,22.82-12.23,44.15-31.9,55.68l-95.4,55.88c-10.07,5.89-21.33,8.83-32.62,8.83ZM640,88.83c-8.97,0-17.92,2.34-25.91,7.03l-95.39,55.88c-15.65,9.16-25.37,26.11-25.37,44.24v113.2c0,18.13,9.72,35.08,25.37,44.24l95.39,55.88c15.99,9.37,35.84,9.37,51.83,0l95.4-55.88c15.64-9.16,25.36-26.11,25.36-44.24v-113.2c0-18.13-9.72-35.08-25.36-44.24l-95.4-55.88c-8-4.68-16.95-7.03-25.91-7.03Z"/>
    <g>
      <path class="st11" d="M499.29,100.25c19.28-2.73,36.32-11.51,50.23-24.49-17.39-8.54-36.45-12.2-55.73-9.46-19.03,2.7-36.89,11.6-49.66,24.4,16.26,8.71,36.13,12.24,55.16,9.55Z"/>
      <path class="st18" d="M447.78,72.29c7.81-5.2,14.84-11.63,20.84-19.29C480.63,37.66,486.99,19.33,488.29,0c-18.19,5.55-34.31,15.92-46.32,31.25-3,3.83-5.65,7.85-7.96,12.03-1.15,2.09-2.22,4.22-3.2,6.38l-1.45,3.3-1.9,3.8c-4.8,10.02-6.28,20.62-5.24,30.42,8.68-5.1,17.79-9.88,25.55-14.89Z"/>
      <path class="st22" d="M401.84,160.01c17.04-8.22,32.29-14.36,43.71-19.57,5.79-2.67,10.35-5.13,14.23-8.09,1.95-1.46,3.72-3.08,5.42-4.85.91-.81,1.63-1.9,2.52-2.8l1.25-1.5c.3-.48.8-1.09,1.85-1.99-2.4-.96-3.91-2.28-5.63-3.44-1.73-1.15-3.55-2.22-5.42-3.15-3.63-1.71-7.65-3.11-11.61-3.65-8.04-1.27-16.62.03-24.35,4.24-15.67,8.27-24.53,27.31-21.96,44.81Z"/>
      <path class="st1" d="M384.87,174.2c3.98-19.62,7.27-38.3,10.55-59.35,3.24-21.05,6.66-42.75,9.47-65.21-24.33,12.8-42.46,38.71-45.12,65.4-3.03,26.73,8.92,48.81,25.1,59.16Z"/>
      <path class="st19" d="M437.22,206.4c3.64-9.03,5.68-18.33,6.29-27.7.15-2.34.21-4.68.18-7.03.01-1.82-.02-2.59-.23-3.96-.22-2.45-.65-4.95-1.26-7.62-8.33,1.31-16.28,4.59-22.37,9.95-6.18,6.59-11.11,15.27-14.77,24.15-7.27,18.06-8.19,37.21-3.91,55.74,16.09-10.79,28.79-25.47,36.06-43.53Z"/>
      <path class="st14" d="M384.87,265.08c4.28-18.53,3.37-37.68-3.91-55.74-3.64-9.03-8.63-17.22-14.72-24.49-3.05-3.64-6.37-7.05-9.94-10.22-3.61-2.7-7.31-7.01-11.16-11.21l-.91,5.06-.68,4.31c-.37,2.33-.66,4.67-.86,7.01-.4,4.68-.46,9.38-.16,14.06.6,9.36,2.65,18.66,6.29,27.7,7.27,18.06,19.97,32.74,36.06,43.53Z"/>
      <path class="st15" d="M437.22,297.28c7.27-18.06,8.19-37.21,3.91-55.74-16.09,10.79-28.79,25.47-36.06,43.53-7.2,17.88-8.35,37.62-3.74,55.33,15.76-9.97,28.7-25.24,35.9-43.12Z"/>
      <path class="st17" d="M363.58,337.29c6.15,9.26,14.54,15.96,23.43,20.11.07-10.08.71-20.36.24-29.49-.6-9.36-2.65-18.66-6.29-27.7-7.27-18.06-19.97-32.74-36.06-43.53-4.28,18.53-3.37,37.68,3.91,55.74,3.66,9.2,8.58,16.84,14.77,24.87Z"/>
      <path class="st0" d="M439.07,412.28c1.77-18.95,4.22-35.07,5.67-47.6.68-6.33.9-11.51.35-16.35-.3-2.41-.78-4.76-1.39-7.14l-1.11-3.6-.7-1.84-.75-3.33c-4.06,3.2-7.74,4.55-11.26,6.83-3.42,2.25-6.56,4.97-9.13,8.1-5.27,6.26-8.49,14.28-8.84,23.07-.94,17.69,10.81,35.1,27.17,41.87Z"/>
      <path class="st5" d="M442.69,434.14c-15.07-13.51-29.24-25.89-45.68-39.52-16.32-13.61-33.36-27.65-51.06-41.6-1.47,27.43,11.4,56.31,32.95,72.29,21.52,16.24,46.3,17.43,63.79,8.83Z"/>
      <path class="st25" d="M475.91,385.6c-1.77-1.21-4.36-2.73-5.58-3.47-1.01-.67-2.16-1.12-3.26-1.67-2.22-1.06-4.6-1.97-7.18-2.84-3.19,7.87-4.42,16.33-2.94,24.31.32,3.89,3.16,8.61,5.2,12.67,2.31,4.18,4.95,8.2,7.96,12.03,12.01,15.33,28.13,25.7,46.32,31.25-1.3-19.33-7.66-37.66-19.67-52.99-6-7.66-13.04-14.09-20.84-19.29Z"/>
      <path class="st24" d="M471.16,455.09c-9.64-1.37-19.22-1.14-28.57.51-4.67.82-9.29,1.99-13.82,3.49-2.09.88-4.78,1.4-7.59,1.89-2.79.58-5.55,1.16-8.28,1.73,2.52,2.24,5.27,4.49,7.9,6.51,1.83,1.49,3.72,2.91,5.64,4.25,3.85,2.69,7.89,5.09,12.09,7.17,8.41,4.16,17.49,7.04,27.13,8.4,19.28,2.73,38.34-.93,55.73-9.46-13.9-12.97-30.95-21.75-50.23-24.49Z"/>
      <path class="st6" d="M780.71,100.25c-19.28-2.73-36.32-11.51-50.23-24.49,17.39-8.54,36.45-12.2,55.73-9.46,19.03,2.7,36.89,11.6,49.66,24.4-16.26,8.71-36.13,12.24-55.16,9.55Z"/>
      <path class="st3" d="M832.22,72.29c-7.81-5.2-14.84-11.63-20.84-19.29C799.37,37.66,793.01,19.33,791.71,0c18.19,5.55,34.31,15.92,46.32,31.25,3,3.83,5.65,7.85,7.96,12.03,1.15,2.09,2.22,4.22,3.2,6.38l1.45,3.3,1.9,3.8c4.8,10.02,6.28,20.62,5.24,30.42-8.68-5.1-17.79-9.88-25.55-14.89Z"/>
      <path class="st9" d="M878.16,160.01c-17.04-8.22-32.29-14.36-43.71-19.57-5.79-2.67-10.35-5.13-14.23-8.09-1.95-1.46-3.72-3.08-5.42-4.85-.91-.81-1.63-1.9-2.52-2.8l-1.25-1.5c-.3-.48-.8-1.09-1.85-1.99,2.4-.96,3.91-2.28,5.63-3.44,1.73-1.15,3.55-2.22,5.42-3.15,3.63-1.71,7.65-3.11,11.61-3.65,8.04-1.27,16.62.03,24.35,4.24,15.67,8.27,24.53,27.31,21.96,44.81Z"/>
      <path class="st10" d="M895.13,174.2c-3.98-19.62-7.27-38.3-10.55-59.35-3.24-21.05-6.66-42.75-9.47-65.21,24.33,12.8,42.46,38.71,45.12,65.4,3.03,26.73-8.92,48.81-25.1,59.16Z"/>
      <path class="st23" d="M842.78,206.4c-3.64-9.03-5.68-18.33-6.29-27.7-.15-2.34-.21-4.68-.18-7.03-.01-1.82.02-2.59.23-3.96.22-2.45.65-4.95,1.26-7.62,8.33,1.31,16.28,4.59,22.37,9.95,6.18,6.59,11.11,15.27,14.77,24.15,7.27,18.06,8.19,37.21,3.91,55.74-16.09-10.79-28.79-25.47-36.06-43.53Z"/>
      <path class="st8" d="M895.13,265.08c-4.28-18.53-3.37-37.68,3.91-55.74,3.64-9.03,8.63-17.22,14.72-24.49,3.05-3.64,6.37-7.05,9.94-10.22,3.61-2.7,7.31-7.01,11.16-11.21l.91,5.06.68,4.31c.37,2.33.66,4.67.86,7.01.4,4.68.46,9.38.16,14.06-.6,9.36-2.65,18.66-6.29,27.7-7.27,18.06-19.97,32.74-36.06,43.53Z"/>
      <path class="st20" d="M842.78,297.28c-7.27-18.06-8.19-37.21-3.91-55.74,16.09,10.79,28.79,25.47,36.06,43.53,7.2,17.88,8.35,37.62,3.74,55.33-15.76-9.97-28.7-25.24-35.9-43.12Z"/>
      <path class="st12" d="M916.42,337.29c-6.15,9.26-14.54,15.96-23.43,20.11-.07-10.08-.71-20.36-.24-29.49.6-9.36,2.65-18.66,6.29-27.7,7.27-18.06,19.97-32.74,36.06-43.53,4.28,18.53,3.37,37.68-3.91,55.74-3.66,9.2-8.58,16.84-14.77,24.87Z"/>
      <path class="st16" d="M840.93,412.28c-1.77-18.95-4.22-35.07-5.67-47.6-.68-6.33-.9-11.51-.35-16.35.3-2.41.78-4.76,1.39-7.14l1.11-3.6.7-1.84.75-3.33c4.06,3.2,7.74,4.55,11.26,6.83,3.42,2.25,6.56,4.97,9.13,8.1,5.27,6.26,8.49,14.28,8.84,23.07.94,17.69-10.81,35.1-27.17,41.87Z"/>
      <path class="st7" d="M837.31,434.14c15.07-13.51,29.24-25.89,45.68-39.52,16.32-13.61,33.36-27.65,51.06-41.6,1.47,27.43-11.4,56.31-32.95,72.29-21.52,16.24-46.3,17.43-63.79,8.83Z"/>
      <path class="st27" d="M804.09,385.6c1.77-1.21,4.36-2.73,5.58-3.47,1.01-.67,2.16-1.12,3.26-1.67,2.22-1.06,4.6-1.97,7.18-2.84,3.19,7.87,4.42,16.33,2.94,24.31-.32,3.89-3.16,8.61-5.2,12.67-2.31,4.18-4.95,8.2-7.96,12.03-12.01,15.33-28.13,25.7-46.32,31.25,1.3-19.33,7.66-37.66,19.67-52.99,6-7.66,13.04-14.09,20.84-19.29Z"/>
      <path class="st28" d="M808.84,455.09c9.64-1.37,19.22-1.14,28.57.51,4.67.82,9.29,1.99,13.82,3.49,2.09.88,4.78,1.4,7.59,1.89,2.79.58,5.55,1.16,8.28,1.73-2.52,2.24-5.27,4.49-7.9,6.51-1.83,1.49-3.72,2.91-5.64,4.25-3.85,2.69-7.89,5.09-12.09,7.17-8.41,4.16-17.49,7.04-27.13,8.4-19.28,2.73-38.34-.93-55.73-9.46,13.9-12.97,30.95-21.75,50.23-24.49Z"/>
    </g>
    <g>
      <path class="st21" d="M743.78,189.33c1.22,1.99,1.99,4.26,1.99,6.75v111.43c0,4.38-2.32,8.75-6.18,11.07l-31.91,18.79v-111.93l36.1-36.1Z"/>
      <path class="st26" d="M713.6,169.58c-5.15-3.09-11.58-2.06-15.7,2.06l-57.9,58.16-57.9-58.16c-4.12-4.12-10.55-5.15-15.7-2.06l-25.73,15.18,31.65,31.65,67.68,67.68,67.68-67.68,31.65-31.65-25.73-15.18Z"/>
      <path class="st4" d="M536.22,189.33c-1.22,1.99-1.99,4.26-1.99,6.75v111.43c0,4.38,2.32,8.75,6.18,11.07l31.91,18.79v-111.93l-36.1-36.1Z"/>
    </g>
  </g>
  <g>
    <g>
      <path class="st2" d="M231.01,609.47v226.8h-40.5v-130.25l-75.16,106.27-74.85-105.95v129.92H0v-226.8h6.49l110.16,136.41,107.9-136.41h6.48Z"/>
      <path class="st2" d="M270.55,614c0-6.48,2.26-11.93,6.8-16.36,4.53-4.42,10.05-6.64,16.52-6.64s11.66,2.21,16.2,6.64c4.53,4.43,6.8,9.88,6.8,16.36s-2.27,11.61-6.8,16.04c-4.54,4.43-9.94,6.64-16.2,6.64s-11.99-2.21-16.52-6.64c-4.54-4.43-6.8-9.77-6.8-16.04ZM274.44,836.27v-178.2h39.53v178.2h-39.53Z"/>
      <path class="st2" d="M354.13,836.27v-178.2h39.53v25.92c8.43-9.07,18.42-16.2,29.97-21.38,11.56-5.19,24.15-7.78,37.75-7.78,10.58,0,20.19,1.73,28.84,5.19,8.63,3.46,16.04,8.42,22.19,14.91,6.15,6.48,10.9,14.31,14.25,23.49,3.34,9.18,5.03,19.5,5.03,30.94v106.92h-39.53v-99.14c0-14.26-4.06-25.6-12.16-34.02-8.09-8.42-18.52-12.64-31.26-12.64-7.13,0-13.99,1.51-20.58,4.54-6.59,3.03-12.48,7.13-17.66,12.31-5.18,5.19-9.29,11.18-12.31,17.98-3.03,6.8-4.54,13.98-4.54,21.54v89.42h-39.53Z"/>
      <path class="st2" d="M607.49,760.46c3.03,12.96,9.29,23.32,18.79,31.1,9.5,7.77,21.06,11.66,34.67,11.66,10.15,0,19.76-2.21,28.84-6.64,9.07-4.42,16.09-10.53,21.06-18.31l22.35,28.52c-8.86,10.37-19.72,18.41-32.57,24.14-12.85,5.72-26.62,8.58-41.3,8.58-13.18,0-25.49-2.38-36.94-7.12-11.45-4.75-21.38-11.34-29.81-19.76-8.42-8.42-15.06-18.25-19.92-29.48-4.86-11.23-7.29-23.33-7.29-36.29s2.32-24.67,6.96-35.8c4.64-11.13,10.96-20.84,18.96-29.16,7.99-8.32,17.44-14.91,28.34-19.76,10.9-4.86,22.52-7.29,34.84-7.29,11.66,0,22.51,2.06,32.56,6.16,10.05,4.11,18.96,9.83,26.74,17.17,7.77,7.35,14.14,16.1,19.11,26.24,4.97,10.15,8.1,21.28,9.4,33.37.43,3.46.59,7.35.49,11.67-.11,4.32-.17,7.99-.17,11.02h-135.11ZM656.74,689.82c-11.88,0-22.14,3.35-30.77,10.04-8.64,6.7-14.48,15.66-17.5,26.89h93.96c-3.24-11.02-8.86-19.93-16.85-26.73-7.99-6.8-17.61-10.2-28.84-10.2Z"/>
      <path class="st2" d="M775,836.27v-178.2h39.53v23.65c8.22-8.64,18.19-15.28,29.97-19.93,11.77-4.64,25.22-6.97,40.34-6.97l-2.92,38.23c-9.07-.86-17.55-.27-25.44,1.78-7.89,2.06-14.85,5.19-20.89,9.4-6.05,4.22-10.9,9.35-14.58,15.39-3.67,6.05-5.83,12.64-6.49,19.76v96.88h-39.53Z"/>
      <path class="st2" d="M952.87,658.07l45.36,100.76,44.39-100.76h44.07l-89.43,178.2-89.75-178.2h45.36Z"/>
      <path class="st2" d="M1240.26,836.27v-21.39c-7.56,7.78-16.48,13.83-26.73,18.15-10.27,4.32-21.45,6.48-33.54,6.48s-23.44-2.43-34.03-7.29c-10.58-4.86-19.76-11.45-27.54-19.76-7.77-8.31-13.93-18.09-18.46-29.32-4.53-11.23-6.8-23.33-6.8-36.29s2.27-24.67,6.8-35.8c4.53-11.13,10.75-20.84,18.63-29.16,7.88-8.32,17.11-14.91,27.7-19.76,10.58-4.86,21.92-7.29,34.03-7.29s23.21,2.11,33.37,6.32c10.15,4.21,19.01,10.1,26.57,17.66v-20.74h39.53v178.2h-39.53ZM1238.96,747.49c0-7.78-1.4-15.18-4.2-22.19-2.81-7.02-6.6-13.13-11.35-18.31-4.76-5.19-10.36-9.29-16.85-12.31-6.48-3.02-13.28-4.54-20.41-4.54s-13.89,1.51-20.25,4.54c-6.37,3.02-11.94,7.12-16.69,12.31-4.76,5.18-8.53,11.23-11.33,18.14-2.81,6.92-4.22,14.26-4.22,22.03s1.4,15.5,4.22,22.52c2.8,7.02,6.58,13.12,11.33,18.31,4.75,5.18,10.32,9.29,16.69,12.31,6.36,3.03,13.22,4.54,20.57,4.54s13.88-1.51,20.25-4.54c6.37-3.02,11.93-7.13,16.69-12.31,4.75-5.19,8.53-11.23,11.35-18.15,2.8-6.91,4.2-14.36,4.2-22.35Z"/>
    </g>
    <g>
      <path class="st2" d="M68.32,903.58v66.66h-8.77v-49.7l-22.16,49.7h-6.17l-22.25-49.81v49.81H.21v-66.66h9.44l24.66,55.1,24.66-55.1h9.35Z"/>
      <path class="st2" d="M138.27,947.12h-42.2c.32,5.2,2.09,9.27,5.34,12.18,3.25,2.92,7.19,4.38,11.81,4.38,3.78,0,6.96-.88,9.49-2.64,2.53-1.76,4.32-4.13,5.34-7.09h9.44c-1.42,5.08-4.22,9.21-8.47,12.39-4.25,3.18-9.51,4.77-15.8,4.77-5.01,0-9.49-1.13-13.43-3.38-3.97-2.25-7.05-5.44-9.3-9.58-2.25-4.14-3.36-8.94-3.36-14.41s1.09-10.24,3.27-14.35c2.18-4.12,5.24-7.27,9.19-9.49,3.97-2.22,8.49-3.33,13.64-3.33s9.44,1.09,13.29,3.27c3.85,2.19,6.82,5.2,8.91,9.01,2.09,3.82,3.13,8.14,3.13,12.96,0,1.67-.09,3.43-.28,5.3ZM127.27,931.37c-1.48-2.41-3.48-4.23-6.01-5.49-2.55-1.25-5.36-1.88-8.44-1.88-4.43,0-8.19,1.4-11.32,4.23-3.11,2.83-4.9,6.74-5.34,11.75h33.34c0-3.34-.74-6.21-2.23-8.62Z"/>
      <path class="st2" d="M157.34,929.44c2.18-4.08,5.17-7.24,9-9.49,3.83-2.25,8.1-3.38,12.85-3.38,4.11,0,7.93.95,11.48,2.84,3.53,1.89,6.22,4.38,8.07,7.47v-27.94h8.86v71.29h-8.86v-9.92c-1.72,3.14-4.29,5.73-7.7,7.75-3.41,2.03-7.38,3.04-11.95,3.04s-8.93-1.16-12.76-3.47c-3.83-2.32-6.82-5.56-9-9.73-2.18-4.18-3.27-8.93-3.27-14.26s1.09-10.14,3.27-14.21ZM196.36,933.34c-1.62-2.95-3.78-5.22-6.52-6.79-2.71-1.58-5.73-2.37-9-2.37s-6.26.78-8.95,2.32c-2.69,1.53-4.85,3.78-6.45,6.74-1.62,2.96-2.41,6.43-2.41,10.4s.79,7.56,2.41,10.54c1.6,2.99,3.76,5.27,6.45,6.84,2.69,1.58,5.68,2.35,8.95,2.35s6.29-.78,9-2.35c2.74-1.58,4.9-3.85,6.52-6.84,1.6-2.98,2.39-6.47,2.39-10.45s-.79-7.45-2.39-10.4Z"/>
      <path class="st2" d="M229.95,907.14c-1.16-1.15-1.74-2.56-1.74-4.23s.58-3.09,1.74-4.25c1.16-1.15,2.58-1.73,4.25-1.73s2.97.58,4.08,1.73c1.14,1.16,1.69,2.58,1.69,4.25s-.56,3.09-1.69,4.23c-1.11,1.16-2.48,1.74-4.08,1.74s-3.09-.58-4.25-1.74ZM238.44,917.45v52.79h-8.77v-52.79h8.77Z"/>
      <path class="st2" d="M260.6,929.44c2.18-4.08,5.22-7.24,9.09-9.49,3.9-2.25,8.33-3.38,13.34-3.38,6.5,0,11.83,1.58,16.05,4.72,4.2,3.14,6.98,7.52,8.33,13.11h-9.44c-.9-3.21-2.64-5.75-5.24-7.62-2.62-1.86-5.85-2.78-9.7-2.78-5.01,0-9.05,1.72-12.13,5.15-3.09,3.43-4.62,8.31-4.62,14.59s1.53,11.27,4.62,14.74c3.09,3.47,7.12,5.2,12.13,5.2,3.85,0,7.08-.89,9.65-2.69,2.55-1.8,4.32-4.37,5.29-7.71h9.44c-1.42,5.39-4.25,9.72-8.49,12.96-4.22,3.25-9.53,4.87-15.89,4.87-5.01,0-9.44-1.13-13.34-3.38-3.87-2.25-6.91-5.43-9.09-9.53-2.18-4.11-3.27-8.93-3.27-14.45s1.09-10.23,3.27-14.3Z"/>
      <path class="st2" d="M326.58,907.14c-1.16-1.15-1.74-2.56-1.74-4.23s.58-3.09,1.74-4.25c1.16-1.15,2.58-1.73,4.25-1.73s2.97.58,4.08,1.73c1.14,1.16,1.69,2.58,1.69,4.25s-.56,3.09-1.69,4.23c-1.11,1.16-2.48,1.74-4.08,1.74s-3.09-.58-4.25-1.74ZM335.07,917.45v52.79h-8.77v-52.79h8.77Z"/>
      <path class="st2" d="M398.54,922.31c3.99,3.89,5.99,9.49,5.99,16.81v31.12h-8.68v-29.87c0-5.25-1.32-9.29-3.94-12.09-2.64-2.8-6.24-4.19-10.79-4.19s-8.31,1.44-11.04,4.34c-2.74,2.89-4.08,7.09-4.08,12.62v29.18h-8.77v-52.79h8.77v7.52c1.72-2.7,4.08-4.79,7.08-6.26,2.99-1.47,6.26-2.22,9.86-2.22,6.43,0,11.62,1.94,15.61,5.82Z"/>
      <path class="st2" d="M426.1,929.44c2.18-4.08,5.17-7.24,9-9.49,3.83-2.25,8.07-3.38,12.76-3.38s8.65,1,12.04,2.99c3.41,1.98,5.94,4.49,7.61,7.5v-9.63h8.86v52.79h-8.86v-9.82c-1.72,3.09-4.32,5.64-7.75,7.66-3.43,2.03-7.42,3.04-11.99,3.04s-8.93-1.16-12.71-3.47c-3.78-2.32-6.77-5.56-8.95-9.73-2.18-4.18-3.27-8.93-3.27-14.26s1.09-10.14,3.27-14.21ZM465.12,933.34c-1.62-2.95-3.78-5.22-6.52-6.79-2.71-1.58-5.73-2.37-9-2.37s-6.26.78-8.95,2.32c-2.69,1.53-4.85,3.78-6.45,6.74-1.62,2.96-2.41,6.43-2.41,10.4s.79,7.56,2.41,10.54c1.6,2.99,3.76,5.27,6.45,6.84,2.69,1.58,5.68,2.35,8.95,2.35s6.29-.78,9-2.35c2.74-1.58,4.9-3.85,6.52-6.84,1.6-2.98,2.39-6.47,2.39-10.45s-.79-7.45-2.39-10.4Z"/>
      <path class="st2" d="M570.57,936.67c-3.83,3.69-9.65,5.53-17.49,5.53h-12.9v28.04h-8.77v-67.15h21.67c7.59,0,13.34,1.83,17.28,5.5,3.97,3.65,5.94,8.37,5.94,14.16s-1.93,10.22-5.73,13.92ZM563.86,931.8c2.32-2.11,3.48-5.14,3.48-9.05,0-8.29-4.76-12.43-14.27-12.43h-12.9v24.66h12.9c4.87,0,8.47-1.06,10.79-3.18Z"/>
      <path class="st2" d="M642.27,947.12h-42.2c.32,5.2,2.09,9.27,5.34,12.18,3.25,2.92,7.19,4.38,11.81,4.38,3.78,0,6.96-.88,9.49-2.64,2.53-1.76,4.32-4.13,5.34-7.09h9.44c-1.42,5.08-4.22,9.21-8.47,12.39-4.25,3.18-9.51,4.77-15.8,4.77-5.01,0-9.49-1.13-13.43-3.38-3.97-2.25-7.05-5.44-9.3-9.58-2.25-4.14-3.36-8.94-3.36-14.41s1.09-10.24,3.27-14.35c2.18-4.12,5.24-7.27,9.19-9.49,3.97-2.22,8.49-3.33,13.64-3.33s9.44,1.09,13.29,3.27c3.85,2.19,6.82,5.2,8.91,9.01,2.09,3.82,3.13,8.14,3.13,12.96,0,1.67-.09,3.43-.28,5.3ZM631.28,931.37c-1.48-2.41-3.48-4.23-6.01-5.49-2.55-1.25-5.36-1.88-8.44-1.88-4.43,0-8.19,1.4-11.32,4.23-3.11,2.83-4.9,6.74-5.34,11.75h33.34c0-3.34-.74-6.21-2.23-8.62Z"/>
      <path class="st2" d="M676.7,918.99c2.85-1.67,6.33-2.51,10.46-2.51v9.05h-2.32c-9.84,0-14.73,5.34-14.73,16v28.71h-8.77v-52.79h8.77v8.57c1.53-3.02,3.74-5.36,6.59-7.03Z"/>
      <path class="st2" d="M712.29,969.03c-3.2-1.38-5.75-3.31-7.61-5.78-1.86-2.47-2.9-5.31-3.09-8.53h9.07c.26,2.63,1.48,4.78,3.69,6.45,2.23,1.67,5.13,2.51,8.72,2.51,3.34,0,5.99-.73,7.91-2.22,1.93-1.47,2.88-3.34,2.88-5.58s-1.02-4.04-3.09-5.16c-2.04-1.13-5.22-2.23-9.53-3.32-3.92-1.03-7.1-2.08-9.58-3.13-2.46-1.07-4.59-2.63-6.36-4.72s-2.64-4.84-2.64-8.24c0-2.7.79-5.17,2.41-7.42,1.6-2.24,3.87-4.03,6.82-5.35,2.97-1.31,6.33-1.97,10.11-1.97,5.85,0,10.58,1.48,14.17,4.43,3.6,2.96,5.52,7.01,5.78,12.14h-8.77c-.19-2.76-1.3-4.98-3.32-6.65-2.02-1.67-4.73-2.51-8.14-2.51-3.16,0-5.66.67-7.52,2.02-1.86,1.35-2.78,3.12-2.78,5.3,0,1.73.56,3.17,1.67,4.28,1.14,1.13,2.55,2.03,4.25,2.7s4.06,1.43,7.08,2.26c3.8,1.03,6.89,2.04,9.26,3.04,2.37,1,4.41,2.48,6.12,4.48,1.69,2,2.58,4.59,2.64,7.81,0,2.89-.81,5.49-2.41,7.79-1.6,2.32-3.87,4.13-6.8,5.44-2.92,1.32-6.26,1.98-10.07,1.98-4.04,0-7.68-.7-10.88-2.08Z"/>
      <path class="st2" d="M771.59,967.73c-4.01-2.25-7.17-5.44-9.44-9.58-2.27-4.14-3.41-8.94-3.41-14.41s1.16-10.16,3.5-14.3c2.34-4.14,5.54-7.32,9.58-9.53,4.06-2.22,8.58-3.33,13.59-3.33s9.53,1.11,13.57,3.33c4.06,2.22,7.24,5.37,9.58,9.49,2.37,4.11,3.53,8.9,3.53,14.35s-1.21,10.27-3.62,14.41c-2.39,4.14-5.66,7.33-9.77,9.58-4.11,2.25-8.68,3.38-13.69,3.38s-9.42-1.13-13.43-3.38ZM793.88,961.18c2.76-1.47,4.99-3.69,6.7-6.65,1.69-2.95,2.55-6.54,2.55-10.79s-.84-7.83-2.51-10.79c-1.67-2.96-3.85-5.15-6.54-6.6-2.71-1.45-5.64-2.17-8.77-2.17s-6.15.72-8.82,2.17c-2.67,1.45-4.8,3.64-6.4,6.6-1.62,2.96-2.41,6.55-2.41,10.79s.79,7.93,2.34,10.89c1.58,2.95,3.69,5.15,6.31,6.59,2.64,1.45,5.54,2.17,8.68,2.17s6.1-.73,8.86-2.22Z"/>
      <path class="st2" d="M872.23,922.31c3.99,3.89,5.99,9.49,5.99,16.81v31.12h-8.68v-29.87c0-5.25-1.32-9.29-3.94-12.09-2.64-2.8-6.24-4.19-10.79-4.19s-8.31,1.44-11.04,4.34c-2.74,2.89-4.08,7.09-4.08,12.62v29.18h-8.77v-52.79h8.77v7.52c1.72-2.7,4.08-4.79,7.08-6.26,2.99-1.47,6.26-2.22,9.86-2.22,6.43,0,11.62,1.94,15.61,5.82Z"/>
      <path class="st2" d="M899.79,929.44c2.18-4.08,5.17-7.24,9-9.49,3.83-2.25,8.07-3.38,12.76-3.38s8.65,1,12.04,2.99c3.41,1.98,5.94,4.49,7.61,7.5v-9.63h8.86v52.79h-8.86v-9.82c-1.72,3.09-4.32,5.64-7.75,7.66-3.43,2.03-7.42,3.04-11.99,3.04s-8.93-1.16-12.71-3.47c-3.78-2.32-6.77-5.56-8.95-9.73-2.18-4.18-3.27-8.93-3.27-14.26s1.09-10.14,3.27-14.21ZM938.81,933.34c-1.62-2.95-3.78-5.22-6.52-6.79-2.71-1.58-5.73-2.37-9-2.37s-6.26.78-8.95,2.32c-2.69,1.53-4.85,3.78-6.45,6.74-1.62,2.96-2.41,6.43-2.41,10.4s.79,7.56,2.41,10.54c1.6,2.99,3.76,5.27,6.45,6.84,2.69,1.58,5.68,2.35,8.95,2.35s6.29-.78,9-2.35c2.74-1.58,4.9-3.85,6.52-6.84,1.6-2.98,2.39-6.47,2.39-10.45s-.79-7.45-2.39-10.4Z"/>
      <path class="st2" d="M980.89,898.95v71.29h-8.77v-71.29h8.77Z"/>
      <path class="st2" d="M1003.32,907.14c-1.16-1.15-1.74-2.56-1.74-4.23s.58-3.09,1.74-4.25c1.16-1.15,2.58-1.73,4.25-1.73s2.97.58,4.08,1.73c1.14,1.16,1.69,2.58,1.69,4.25s-.56,3.09-1.69,4.23c-1.11,1.16-2.48,1.74-4.08,1.74s-3.09-.58-4.25-1.74ZM1011.82,917.45v52.79h-8.77v-52.79h8.77Z"/>
      <path class="st2" d="M1040.51,963.01h25.91v7.23h-35.94v-7.23l25.64-38.44h-25.43v-7.12h35.54v7.12l-25.73,38.44Z"/>
      <path class="st2" d="M1085.03,929.44c2.18-4.08,5.17-7.24,9-9.49,3.83-2.25,8.07-3.38,12.76-3.38s8.65,1,12.04,2.99c3.41,1.98,5.94,4.49,7.61,7.5v-9.63h8.86v52.79h-8.86v-9.82c-1.72,3.09-4.32,5.64-7.75,7.66-3.43,2.03-7.42,3.04-11.99,3.04s-8.93-1.16-12.71-3.47c-3.78-2.32-6.77-5.56-8.95-9.73-2.18-4.18-3.27-8.93-3.27-14.26s1.09-10.14,3.27-14.21ZM1124.05,933.34c-1.62-2.95-3.78-5.22-6.52-6.79-2.71-1.58-5.73-2.37-9-2.37s-6.26.78-8.95,2.32c-2.69,1.53-4.85,3.78-6.45,6.74-1.62,2.96-2.41,6.43-2.41,10.4s.79,7.56,2.41,10.54c1.6,2.99,3.76,5.27,6.45,6.84,2.69,1.58,5.68,2.35,8.95,2.35s6.29-.78,9-2.35c2.74-1.58,4.9-3.85,6.52-6.84,1.6-2.98,2.39-6.47,2.39-10.45s-.79-7.45-2.39-10.4Z"/>
      <path class="st2" d="M1157.37,929.44c2.18-4.08,5.17-7.24,9-9.49,3.83-2.25,8.1-3.38,12.85-3.38,4.11,0,7.93.95,11.48,2.84,3.53,1.89,6.22,4.38,8.07,7.47v-27.94h8.86v71.29h-8.86v-9.92c-1.72,3.14-4.29,5.73-7.7,7.75-3.41,2.03-7.38,3.04-11.95,3.04s-8.93-1.16-12.76-3.47c-3.83-2.32-6.82-5.56-9-9.73-2.18-4.18-3.27-8.93-3.27-14.26s1.09-10.14,3.27-14.21ZM1196.39,933.34c-1.62-2.95-3.78-5.22-6.52-6.79-2.71-1.58-5.73-2.37-9-2.37s-6.26.78-8.95,2.32c-2.69,1.53-4.85,3.78-6.45,6.74-1.62,2.96-2.41,6.43-2.41,10.4s.79,7.56,2.41,10.54c1.6,2.99,3.76,5.27,6.45,6.84s5.68,2.35,8.95,2.35,6.29-.78,9-2.35c2.74-1.58,4.9-3.85,6.52-6.84,1.6-2.98,2.39-6.47,2.39-10.45s-.79-7.45-2.39-10.4Z"/>
      <path class="st2" d="M1229.73,929.44c2.18-4.08,5.17-7.24,9-9.49,3.83-2.25,8.07-3.38,12.76-3.38s8.65,1,12.04,2.99c3.41,1.98,5.94,4.49,7.61,7.5v-9.63h8.86v52.79h-8.86v-9.82c-1.72,3.09-4.32,5.64-7.75,7.66-3.43,2.03-7.42,3.04-11.99,3.04s-8.93-1.16-12.71-3.47c-3.78-2.32-6.77-5.56-8.95-9.73-2.18-4.18-3.27-8.93-3.27-14.26s1.09-10.14,3.27-14.21ZM1268.75,933.34c-1.62-2.95-3.78-5.22-6.52-6.79-2.71-1.58-5.73-2.37-9-2.37s-6.26.78-8.95,2.32c-2.69,1.53-4.85,3.78-6.45,6.74-1.62,2.96-2.41,6.43-2.41,10.4s.79,7.56,2.41,10.54c1.6,2.99,3.76,5.27,6.45,6.84,2.69,1.58,5.68,2.35,8.95,2.35s6.29-.78,9-2.35c2.74-1.58,4.9-3.85,6.52-6.84,1.6-2.98,2.39-6.47,2.39-10.45s-.79-7.45-2.39-10.4Z"/>
    </g>
  </g>
</svg>